name E:\Dropbox\SEL\BOX\Experiment\240124_SUB1_PJH\c3d\XYZ\UpDown_TrcMot\15_10_trial2_U1_ExtLoadAPP1.mot
datacolumns 37
datarows 11
range 1.877 1.887
endheader

time	    ground_force1_vx	    ground_force1_vy	    ground_force1_vz	    ground_force1_px	    ground_force1_py	    ground_force1_pz	    ground_torque1_x	    ground_torque1_y	    ground_torque1_z	    ground_force2_vx	    ground_force2_vy	    ground_force2_vz	    ground_force2_px	    ground_force2_py	    ground_force2_pz	    ground_torque2_x	    ground_torque2_y	    ground_torque2_z	      hand_force3_vx	      hand_force3_vy	      hand_force3_vz	      hand_force3_px	      hand_force3_py	      hand_force3_pz	      hand_torque3_x	      hand_torque3_y	      hand_torque3_z	      hand_force4_vx	      hand_force4_vy	      hand_force4_vz	      hand_force4_px	      hand_force4_py	      hand_force4_pz	      hand_torque4_x	      hand_torque4_y	      hand_torque4_z	
1.877	         35.02141655	        474.61080117	          5.35023885	          0.22333170	          0.00000000	          0.19636506	          0.00000000	         -2.35424570	          0.00000000	        -41.28042475	        526.24026595	          2.93668206	          0.57440861	          0.00000000	          0.20063599	          0.00000000	          0.11322271	          0.00000000	         -5.57178238	        -96.01038457	          2.60918038	          0.20578701	          0.53310654	          0.00282754	         -0.00000600	         -0.01061555	          0.00082610	          5.25652860	        -94.28127682	          2.59257052	          0.59498699	          0.53310654	          0.00126040	         -0.00038292	          0.26534757	         -0.02116180	
1.878	         35.00981788	        474.40859981	          5.33003989	          0.22332843	          0.00000000	          0.19642562	          0.00000000	         -2.36425987	          0.00000000	        -41.28091640	        526.39193422	          2.82445062	          0.57440656	          0.00000000	          0.20079893	          0.00000000	          0.12963342	          0.00000000	         -5.53537288	        -95.99393339	          2.63580910	          0.20579355	          0.53395069	          0.00304580	         -0.00000886	         -0.00991550	          0.00077133	          5.21679147	        -94.27890047	          2.64348496	          0.59500592	          0.53395069	          0.00151351	         -0.00036500	          0.26485065	         -0.02111830	
1.879	         34.99732612	        474.19693795	          5.30849636	          0.22332491	          0.00000000	          0.19648681	          0.00000000	         -2.37439021	          0.00000000	        -41.28145038	        526.53769206	          2.71397701	          0.57440457	          0.00000000	          0.20096190	          0.00000000	          0.14605757	          0.00000000	         -5.49935239	        -95.97674038	          2.66313211	          0.20580090	          0.53479746	          0.00326379	         -0.00001153	         -0.00921228	          0.00071630	          5.17634241	        -94.27520765	          2.69482777	          0.59502351	          0.53479746	          0.00176641	         -0.00034710	          0.26430137	         -0.02106984	
1.88	         34.98390860	        473.97550502	          5.28556382	          0.22332114	          0.00000000	          0.19654861	          0.00000000	         -2.38463669	          0.00000000	        -41.28199310	        526.67712975	          2.60536276	          0.57440266	          0.00000000	          0.20112483	          0.00000000	          0.16249168	          0.00000000	         -5.46375476	        -95.95875037	          2.69120003	          0.20580908	          0.53564683	          0.00348150	         -0.00001399	         -0.00850495	          0.00066093	          5.13520445	        -94.27014160	          2.74660701	          0.59503974	          0.53564683	          0.00201904	         -0.00032920	          0.26370170	         -0.02101660	
1.881	         34.96953669	        473.74401211	          5.26119868	          0.22331714	          0.00000000	          0.19661101	          0.00000000	         -2.39499915	          0.00000000	        -41.28251068	        526.80984751	          2.49870155	          0.57440082	          0.00000000	          0.20128764	          0.00000000	          0.17893270	          0.00000000	         -5.42861183	        -95.93991054	          2.72006289	          0.20581809	          0.53649880	          0.00369896	         -0.00001625	         -0.00779256	          0.00060517	          5.09340385	        -94.26364864	          2.79882946	          0.59505464	          0.53649880	          0.00227136	         -0.00031130	          0.26305373	         -0.02095876	
1.882	         34.95418585	        473.50219265	          5.23535822	          0.22331289	          0.00000000	          0.19667401	          0.00000000	         -2.40547729	          0.00000000	        -41.28296904	        526.93545638	          2.39407892	          0.57439906	          0.00000000	          0.20145027	          0.00000000	          0.19537803	          0.00000000	         -5.39395334	        -95.92017051	          2.74977001	          0.20582793	          0.53735337	          0.00391618	         -0.00001831	         -0.00707407	          0.00054894	          5.05097012	        -94.25567816	          2.85150069	          0.59506820	          0.53735337	          0.00252335	         -0.00029341	          0.26235971	         -0.02089652	
1.883	         34.93783556	        473.24980313	          5.20800053	          0.22330841	          0.00000000	          0.19673763	          0.00000000	         -2.41607067	          0.00000000	        -41.28333403	        527.05357913	          2.29157206	          0.57439737	          0.00000000	          0.20161266	          0.00000000	          0.21182556	          0.00000000	         -5.35980679	        -95.89948253	          2.78036982	          0.20583860	          0.53821053	          0.00413317	         -0.00002015	         -0.00634840	          0.00049217	          5.00793601	        -94.24618265	          2.90462510	          0.59508043	          0.53821053	          0.00277496	         -0.00027553	          0.26162204	         -0.02083008	
1.884	         34.92046939	        472.98662357	          5.17908452	          0.22330369	          0.00000000	          0.19680187	          0.00000000	         -2.42677870	          0.00000000	        -41.28357155	        527.16385102	          2.19124960	          0.57439576	          0.00000000	          0.20177475	          0.00000000	          0.22827356	          0.00000000	         -5.32619735	        -95.87780158	          2.81190968	          0.20585011	          0.53907029	          0.00434996	         -0.00002177	         -0.00561444	          0.00043478	          4.96433745	        -94.23511776	          2.95820597	          0.59509136	          0.53907029	          0.00302617	         -0.00025765	          0.26084328	         -0.02075968	
1.885	         34.90207492	        472.71245809	          5.14856987	          0.22329874	          0.00000000	          0.19686674	          0.00000000	         -2.43760069	          0.00000000	        -41.28364767	        527.26592063	          2.09317140	          0.57439423	          0.00000000	          0.20193649	          0.00000000	          0.24472079	          0.00000000	         -5.29314773	        -95.85508549	          2.84443573	          0.20586244	          0.53993262	          0.00456656	         -0.00002317	         -0.00487105	          0.00037669	          4.92021357	        -94.22244224	          3.01224552	          0.59510100	          0.53993262	          0.00327695	         -0.00023978	          0.26002609	         -0.02068554	
1.886	         34.88264370	        472.42713522	          5.11641701	          0.22329357	          0.00000000	          0.19693228	          0.00000000	         -2.44853579	          0.00000000	        -41.28352874	        527.35945062	          1.99738843	          0.57439278	          0.00000000	          0.20209782	          0.00000000	          0.26116640	          0.00000000	         -5.26067811	        -95.83129505	          2.87799265	          0.20587560	          0.54079754	          0.00478301	         -0.00002436	         -0.00411706	          0.00031782	          4.87560657	        -94.20811793	          3.06674496	          0.59510937	          0.54079754	          0.00352727	         -0.00022191	          0.25917326	         -0.02060790	
1.887	         34.86217120	        472.13050826	          5.08258707	          0.22328817	          0.00000000	          0.19699851	          0.00000000	         -2.45958306	          0.00000000	        -41.28318157	        527.44411848	          1.90394261	          0.57439141	          0.00000000	          0.20225871	          0.00000000	          0.27760997	          0.00000000	         -5.22880609	        -95.80639406	          2.91262356	          0.20588958	          0.54166503	          0.00499932	         -0.00002531	         -0.00335126	          0.00025807	          4.83056169	        -94.19210981	          3.12170453	          0.59511652	          0.54166503	          0.00377712	         -0.00020404	          0.25828772	         -0.02052701	
